<svg width="32" height="38" viewBox="0 0 32 38" fill="none" xmlns="http://www.w3.org/2000/svg">
<path d="M19.3334 17.3333H9.33335M12.6667 24H9.33335M22.6667 10.6667H9.33335M29.3334 10.3333V27.6667C29.3334 30.4669 29.3334 31.8671 28.7884 32.9366C28.309 33.8774 27.5441 34.6423 26.6033 35.1217C25.5337 35.6667 24.1336 35.6667 21.3334 35.6667H10.6667C7.86642 35.6667 6.46629 35.6667 5.39673 35.1217C4.45592 34.6423 3.69102 33.8774 3.21165 32.9366C2.66669 31.8671 2.66669 30.4669 2.66669 27.6667V10.3333C2.66669 7.53307 2.66669 6.13294 3.21165 5.06338C3.69102 4.12257 4.45592 3.35767 5.39673 2.8783C6.46629 2.33334 7.86642 2.33334 10.6667 2.33334H21.3334C24.1336 2.33334 25.5337 2.33334 26.6033 2.8783C27.5441 3.35767 28.309 4.12257 28.7884 5.06338C29.3334 6.13294 29.3334 7.53307 29.3334 10.3333Z" stroke="black" stroke-width="3.5" stroke-linecap="round" stroke-linejoin="round"/>
</svg>
