<svg width="34" height="34" viewBox="0 0 34 34" fill="none" xmlns="http://www.w3.org/2000/svg">
<path d="M7.83333 7.83333H7.85M26.1667 7.83333H26.1833M7.83333 26.1667H7.85M18.6667 18.6667H18.6833M26.1667 26.1667H26.1833M25.3333 32H32V25.3333M20.3333 24.5V32M32 20.3333H24.5M23 13.6667H29.3333C30.2668 13.6667 30.7335 13.6667 31.09 13.485C31.4036 13.3252 31.6586 13.0703 31.8183 12.7567C32 12.4001 32 11.9334 32 11V4.66667C32 3.73325 32 3.26654 31.8183 2.91002C31.6586 2.59641 31.4036 2.34144 31.09 2.18166C30.7335 2 30.2668 2 29.3333 2H23C22.0666 2 21.5999 2 21.2433 2.18166C20.9297 2.34144 20.6748 2.59641 20.515 2.91002C20.3333 3.26654 20.3333 3.73325 20.3333 4.66667V11C20.3333 11.9334 20.3333 12.4001 20.515 12.7567C20.6748 13.0703 20.9297 13.3252 21.2433 13.485C21.5999 13.6667 22.0666 13.6667 23 13.6667ZM4.66667 13.6667H11C11.9334 13.6667 12.4001 13.6667 12.7567 13.485C13.0703 13.3252 13.3252 13.0703 13.485 12.7567C13.6667 12.4001 13.6667 11.9334 13.6667 11V4.66667C13.6667 3.73325 13.6667 3.26654 13.485 2.91002C13.3252 2.59641 13.0703 2.34144 12.7567 2.18166C12.4001 2 11.9334 2 11 2H4.66667C3.73325 2 3.26654 2 2.91002 2.18166C2.59641 2.34144 2.34144 2.59641 2.18166 2.91002C2 3.26654 2 3.73325 2 4.66667V11C2 11.9334 2 12.4001 2.18166 12.7567C2.34144 13.0703 2.59641 13.3252 2.91002 13.485C3.26654 13.6667 3.73325 13.6667 4.66667 13.6667ZM4.66667 32H11C11.9334 32 12.4001 32 12.7567 31.8183C13.0703 31.6586 13.3252 31.4036 13.485 31.09C13.6667 30.7335 13.6667 30.2668 13.6667 29.3333V23C13.6667 22.0666 13.6667 21.5999 13.485 21.2433C13.3252 20.9297 13.0703 20.6748 12.7567 20.515C12.4001 20.3333 11.9334 20.3333 11 20.3333H4.66667C3.73325 20.3333 3.26654 20.3333 2.91002 20.515C2.59641 20.6748 2.34144 20.9297 2.18166 21.2433C2 21.5999 2 22.0666 2 23V29.3333C2 30.2668 2 30.7335 2.18166 31.09C2.34144 31.4036 2.59641 31.6586 2.91002 31.8183C3.26654 32 3.73325 32 4.66667 32Z" stroke="black" stroke-width="3.5" stroke-linecap="round" stroke-linejoin="round"/>
</svg>
