<svg width="32" height="34" viewBox="0 0 32 34" fill="none" xmlns="http://www.w3.org/2000/svg">
<path d="M11 14.5L14.3333 17.8333L21.8333 10.3333M29.3333 32V10C29.3333 7.19974 29.3333 5.79961 28.7884 4.73005C28.309 3.78924 27.5441 3.02433 26.6033 2.54497C25.5337 2 24.1336 2 21.3333 2H10.6667C7.86639 2 6.46626 2 5.3967 2.54497C4.45589 3.02433 3.69099 3.78924 3.21162 4.73005C2.66666 5.79961 2.66666 7.19974 2.66666 10V32L7.24999 28.6667L11.4167 32L16 28.6667L20.5833 32L24.75 28.6667L29.3333 32Z" stroke="black" stroke-width="3.5" stroke-linecap="round" stroke-linejoin="round"/>
</svg>
